<svg width="20" height="20" fill="none" xmlns="http://www.w3.org/2000/svg"><path d="M10 0C4.48 0 0 4.48 0 10s4.48 10 10 10 10-4.48 10-10S15.52 0 10 0Zm1 2.07c3.07.38 5.57 2.52 6.54 5.36L11 3.65V2.07ZM6 3.08c1.18-.69 3.33-1.06 3-1.02v7.35l-3 1.73V3.08ZM2.63 13.1c-.4-.96-.63-2-.63-3.1 0-2.02.76-3.86 2-5.27v7.58l-1.37.79Zm1.01 1.73L10 11.15l3 1.73-6.98 4.03a7.794 7.794 0 0 1-2.38-2.08ZM10 18c-.54 0-1.07-.06-1.58-.16l6.58-3.8 1.36.78C14.9 16.75 12.6 18 10 18Zm1-8.58V5.96l7 4.05c0 1.1-.23 2.14-.63 3.09L11 9.42Z" fill="#fff"/></svg>